<svg xmlns="http://www.w3.org/2000/svg" xmlns:xlink="http://www.w3.org/1999/xlink" width="64" zoomAndPan="magnify" viewBox="0 0 48 48" height="64" preserveAspectRatio="xMidYMid meet" version="1.0"><defs><g/><clipPath id="b119e49fd7"><path d="M 0.488281 0 L 33 0 L 33 47.019531 L 0.488281 47.019531 Z M 0.488281 0 " clip-rule="nonzero"/></clipPath><clipPath id="390270f6b0"><path d="M 28.199219 -2.226562 L 32.578125 0.511719 L 1.871094 49.652344 L -2.503906 46.914062 Z M 28.199219 -2.226562 " clip-rule="nonzero"/></clipPath><clipPath id="786ec851fe"><path d="M 27.101562 0 L 32.582031 0 L 32.582031 47.019531 L 27.101562 47.019531 Z M 27.101562 0 " clip-rule="nonzero"/></clipPath><clipPath id="07cd81edee"><path d="M 0.488281 20.425781 L 32.578125 20.425781 L 32.578125 23.710938 L 0.488281 23.710938 Z M 0.488281 20.425781 " clip-rule="nonzero"/></clipPath><clipPath id="3538a49104"><path d="M 29.839844 39.65625 L 47.507812 39.65625 L 47.507812 43.960938 L 29.839844 43.960938 Z M 29.839844 39.65625 " clip-rule="nonzero"/></clipPath></defs><g clip-path="url(#b119e49fd7)"><g clip-path="url(#390270f6b0)"><path fill="#f2464c" d="M 28.199219 -2.226562 L 32.578125 0.511719 L 1.871094 49.652344 L -2.507812 46.917969 Z M 28.199219 -2.226562 " fill-opacity="1" fill-rule="nonzero"/></g></g><g clip-path="url(#786ec851fe)"><path fill="#f2464c" d="M 27.101562 -1.960938 L 32.582031 -1.960938 L 32.582031 63.390625 L 27.101562 63.390625 Z M 27.101562 -1.960938 " fill-opacity="1" fill-rule="nonzero"/></g><g clip-path="url(#07cd81edee)"><path fill="#f2464c" d="M 32.578125 20.425781 L 32.578125 23.710938 L -2.503906 23.710938 L -2.503906 20.425781 Z M 32.578125 20.425781 " fill-opacity="1" fill-rule="nonzero"/></g><g clip-path="url(#3538a49104)"><path fill="#f2464c" d="M 64.925781 39.65625 L 64.925781 43.960938 L 29.847656 43.960938 L 29.847656 39.65625 Z M 64.925781 39.65625 " fill-opacity="1" fill-rule="nonzero"/></g><g fill="#472d2d" fill-opacity="1"><g transform="translate(33.649183, 1.734028)"><g><path d="M 2.34375 2.65625 L 0 2.65625 L 0 2.34375 L 1.75 2.34375 L 0 1.5625 L 0 1.359375 L 1.75 0.5625 L 0 0.5625 L 0 0.265625 L 2.34375 0.265625 L 2.34375 0.59375 L 0.40625 1.46875 L 2.34375 2.328125 Z M 2.34375 2.65625 "/></g></g></g><g fill="#472d2d" fill-opacity="1"><g transform="translate(33.649183, 4.69214)"><g><path d="M 1 1.953125 C 0.9375 1.953125 0.875 1.953125 0.8125 1.953125 L 0.8125 0.46875 C 0.632812 0.476562 0.492188 0.539062 0.390625 0.65625 C 0.285156 0.769531 0.234375 0.90625 0.234375 1.0625 C 0.234375 1.195312 0.265625 1.304688 0.328125 1.390625 C 0.390625 1.484375 0.472656 1.550781 0.578125 1.59375 L 0.578125 1.921875 C 0.398438 1.867188 0.253906 1.765625 0.140625 1.609375 C 0.0234375 1.460938 -0.03125 1.28125 -0.03125 1.0625 C -0.03125 0.882812 0.00390625 0.726562 0.078125 0.59375 C 0.160156 0.457031 0.273438 0.347656 0.421875 0.265625 C 0.566406 0.179688 0.738281 0.140625 0.9375 0.140625 C 1.125 0.140625 1.289062 0.175781 1.4375 0.25 C 1.582031 0.332031 1.691406 0.441406 1.765625 0.578125 C 1.847656 0.722656 1.890625 0.882812 1.890625 1.0625 C 1.890625 1.238281 1.847656 1.394531 1.765625 1.53125 C 1.691406 1.664062 1.585938 1.769531 1.453125 1.84375 C 1.316406 1.914062 1.164062 1.953125 1 1.953125 Z M 1.0625 1.640625 C 1.175781 1.640625 1.273438 1.613281 1.359375 1.5625 C 1.453125 1.507812 1.519531 1.4375 1.5625 1.34375 C 1.601562 1.257812 1.625 1.160156 1.625 1.046875 C 1.625 0.890625 1.570312 0.753906 1.46875 0.640625 C 1.375 0.535156 1.238281 0.476562 1.0625 0.46875 Z M 1.0625 1.640625 "/></g></g></g><g fill="#472d2d" fill-opacity="1"><g transform="translate(33.649183, 6.83176)"><g><path d="M 1.890625 1.171875 C 1.890625 1.390625 1.820312 1.566406 1.6875 1.703125 C 1.550781 1.847656 1.351562 1.921875 1.09375 1.921875 L 0 1.921875 L 0 1.625 L 1.046875 1.625 C 1.234375 1.625 1.375 1.578125 1.46875 1.484375 C 1.570312 1.390625 1.625 1.265625 1.625 1.109375 C 1.625 0.941406 1.570312 0.804688 1.46875 0.703125 C 1.363281 0.609375 1.21875 0.5625 1.03125 0.5625 L 0 0.5625 L 0 0.265625 L 1.859375 0.265625 L 1.859375 0.5625 L 1.59375 0.5625 C 1.6875 0.625 1.757812 0.707031 1.8125 0.8125 C 1.863281 0.914062 1.890625 1.035156 1.890625 1.171875 Z M 1.890625 1.171875 "/></g></g></g><g fill="#472d2d" fill-opacity="1"><g transform="translate(33.649183, 9.039306)"><g><path d="M 1.859375 1.90625 L 0 1.90625 L 0 1.59375 L 0.28125 1.59375 C 0.175781 1.539062 0.0976562 1.460938 0.046875 1.359375 C -0.00390625 1.253906 -0.03125 1.132812 -0.03125 1 C -0.03125 0.863281 0 0.734375 0.0625 0.609375 C 0.125 0.492188 0.210938 0.40625 0.328125 0.34375 C 0.453125 0.28125 0.597656 0.25 0.765625 0.25 L 1.859375 0.25 L 1.859375 0.546875 L 0.8125 0.546875 C 0.625 0.546875 0.476562 0.59375 0.375 0.6875 C 0.28125 0.78125 0.234375 0.90625 0.234375 1.0625 C 0.234375 1.226562 0.285156 1.359375 0.390625 1.453125 C 0.492188 1.546875 0.644531 1.59375 0.84375 1.59375 L 1.859375 1.59375 Z M 1.859375 1.90625 "/></g></g></g><g fill="#472d2d" fill-opacity="1"><g transform="translate(33.649183, 11.246852)"><g><path d="M 2.15625 0.421875 C 2.15625 0.359375 2.175781 0.304688 2.21875 0.265625 C 2.257812 0.222656 2.3125 0.203125 2.375 0.203125 C 2.425781 0.203125 2.472656 0.222656 2.515625 0.265625 C 2.554688 0.304688 2.578125 0.359375 2.578125 0.421875 C 2.578125 0.472656 2.554688 0.519531 2.515625 0.5625 C 2.472656 0.601562 2.425781 0.625 2.375 0.625 C 2.3125 0.625 2.257812 0.601562 2.21875 0.5625 C 2.175781 0.519531 2.15625 0.472656 2.15625 0.421875 Z M 1.859375 0.5625 L 0 0.5625 L 0 0.265625 L 1.859375 0.265625 Z M 1.859375 0.5625 "/></g></g></g><g fill="#472d2d" fill-opacity="1"><g transform="translate(33.649183, 12.116286)"><g><path d="M -0.03125 0.921875 C -0.03125 0.773438 -0.0078125 0.644531 0.03125 0.53125 C 0.0820312 0.414062 0.148438 0.328125 0.234375 0.265625 C 0.328125 0.203125 0.429688 0.164062 0.546875 0.15625 L 0.546875 0.484375 C 0.453125 0.484375 0.375 0.519531 0.3125 0.59375 C 0.257812 0.675781 0.234375 0.785156 0.234375 0.921875 C 0.234375 1.035156 0.257812 1.125 0.3125 1.1875 C 0.363281 1.257812 0.425781 1.296875 0.5 1.296875 C 0.582031 1.296875 0.644531 1.257812 0.6875 1.1875 C 0.726562 1.113281 0.765625 1 0.796875 0.84375 C 0.835938 0.707031 0.875 0.597656 0.90625 0.515625 C 0.945312 0.429688 1.003906 0.359375 1.078125 0.296875 C 1.148438 0.234375 1.25 0.203125 1.375 0.203125 C 1.46875 0.203125 1.550781 0.226562 1.625 0.28125 C 1.707031 0.332031 1.769531 0.410156 1.8125 0.515625 C 1.863281 0.617188 1.890625 0.738281 1.890625 0.875 C 1.890625 1.082031 1.835938 1.25 1.734375 1.375 C 1.628906 1.5 1.488281 1.566406 1.3125 1.578125 L 1.3125 1.265625 C 1.40625 1.265625 1.476562 1.226562 1.53125 1.15625 C 1.59375 1.082031 1.625 0.988281 1.625 0.875 C 1.625 0.757812 1.597656 0.664062 1.546875 0.59375 C 1.503906 0.53125 1.445312 0.5 1.375 0.5 C 1.3125 0.5 1.257812 0.519531 1.21875 0.5625 C 1.175781 0.601562 1.144531 0.648438 1.125 0.703125 C 1.101562 0.765625 1.078125 0.851562 1.046875 0.96875 C 1.003906 1.09375 0.96875 1.195312 0.9375 1.28125 C 0.90625 1.363281 0.851562 1.4375 0.78125 1.5 C 0.707031 1.5625 0.613281 1.59375 0.5 1.59375 C 0.40625 1.59375 0.316406 1.5625 0.234375 1.5 C 0.148438 1.445312 0.0820312 1.367188 0.03125 1.265625 C -0.0078125 1.171875 -0.03125 1.054688 -0.03125 0.921875 Z M -0.03125 0.921875 "/></g></g></g><g fill="#472d2d" fill-opacity="1"><g transform="translate(33.649183, 13.923075)"><g><path d="M 1 1.953125 C 0.9375 1.953125 0.875 1.953125 0.8125 1.953125 L 0.8125 0.46875 C 0.632812 0.476562 0.492188 0.539062 0.390625 0.65625 C 0.285156 0.769531 0.234375 0.90625 0.234375 1.0625 C 0.234375 1.195312 0.265625 1.304688 0.328125 1.390625 C 0.390625 1.484375 0.472656 1.550781 0.578125 1.59375 L 0.578125 1.921875 C 0.398438 1.867188 0.253906 1.765625 0.140625 1.609375 C 0.0234375 1.460938 -0.03125 1.28125 -0.03125 1.0625 C -0.03125 0.882812 0.00390625 0.726562 0.078125 0.59375 C 0.160156 0.457031 0.273438 0.347656 0.421875 0.265625 C 0.566406 0.179688 0.738281 0.140625 0.9375 0.140625 C 1.125 0.140625 1.289062 0.175781 1.4375 0.25 C 1.582031 0.332031 1.691406 0.441406 1.765625 0.578125 C 1.847656 0.722656 1.890625 0.882812 1.890625 1.0625 C 1.890625 1.238281 1.847656 1.394531 1.765625 1.53125 C 1.691406 1.664062 1.585938 1.769531 1.453125 1.84375 C 1.316406 1.914062 1.164062 1.953125 1 1.953125 Z M 1.0625 1.640625 C 1.175781 1.640625 1.273438 1.613281 1.359375 1.5625 C 1.453125 1.507812 1.519531 1.4375 1.5625 1.34375 C 1.601562 1.257812 1.625 1.160156 1.625 1.046875 C 1.625 0.890625 1.570312 0.753906 1.46875 0.640625 C 1.375 0.535156 1.238281 0.476562 1.0625 0.46875 Z M 1.0625 1.640625 "/></g></g></g><g fill="#472d2d" fill-opacity="1"><g transform="translate(33.649183, 16.062695)"><g><path d="M 1.5625 0.5625 C 1.664062 0.625 1.742188 0.703125 1.796875 0.796875 C 1.859375 0.898438 1.890625 1.023438 1.890625 1.171875 L 1.578125 1.171875 L 1.578125 1.09375 C 1.578125 0.738281 1.390625 0.5625 1.015625 0.5625 L 0 0.5625 L 0 0.265625 L 1.859375 0.265625 L 1.859375 0.5625 Z M 1.5625 0.5625 "/></g></g></g><g fill="#472d2d" fill-opacity="1"><g transform="translate(33.649183, 17.363448)"><g><path d="M 2.15625 0.421875 C 2.15625 0.359375 2.175781 0.304688 2.21875 0.265625 C 2.257812 0.222656 2.3125 0.203125 2.375 0.203125 C 2.425781 0.203125 2.472656 0.222656 2.515625 0.265625 C 2.554688 0.304688 2.578125 0.359375 2.578125 0.421875 C 2.578125 0.472656 2.554688 0.519531 2.515625 0.5625 C 2.472656 0.601562 2.425781 0.625 2.375 0.625 C 2.3125 0.625 2.257812 0.601562 2.21875 0.5625 C 2.175781 0.519531 2.15625 0.472656 2.15625 0.421875 Z M 1.859375 0.5625 L 0 0.5625 L 0 0.265625 L 1.859375 0.265625 Z M 1.859375 0.5625 "/></g></g></g><g fill="#472d2d" fill-opacity="1"><g transform="translate(33.649183, 18.232882)"><g><path d="M 1 1.953125 C 0.9375 1.953125 0.875 1.953125 0.8125 1.953125 L 0.8125 0.46875 C 0.632812 0.476562 0.492188 0.539062 0.390625 0.65625 C 0.285156 0.769531 0.234375 0.90625 0.234375 1.0625 C 0.234375 1.195312 0.265625 1.304688 0.328125 1.390625 C 0.390625 1.484375 0.472656 1.550781 0.578125 1.59375 L 0.578125 1.921875 C 0.398438 1.867188 0.253906 1.765625 0.140625 1.609375 C 0.0234375 1.460938 -0.03125 1.28125 -0.03125 1.0625 C -0.03125 0.882812 0.00390625 0.726562 0.078125 0.59375 C 0.160156 0.457031 0.273438 0.347656 0.421875 0.265625 C 0.566406 0.179688 0.738281 0.140625 0.9375 0.140625 C 1.125 0.140625 1.289062 0.175781 1.4375 0.25 C 1.582031 0.332031 1.691406 0.441406 1.765625 0.578125 C 1.847656 0.722656 1.890625 0.882812 1.890625 1.0625 C 1.890625 1.238281 1.847656 1.394531 1.765625 1.53125 C 1.691406 1.664062 1.585938 1.769531 1.453125 1.84375 C 1.316406 1.914062 1.164062 1.953125 1 1.953125 Z M 1.0625 1.640625 C 1.175781 1.640625 1.273438 1.613281 1.359375 1.5625 C 1.453125 1.507812 1.519531 1.4375 1.5625 1.34375 C 1.601562 1.257812 1.625 1.160156 1.625 1.046875 C 1.625 0.890625 1.570312 0.753906 1.46875 0.640625 C 1.375 0.535156 1.238281 0.476562 1.0625 0.46875 Z M 1.0625 1.640625 "/></g></g></g><g fill="#472d2d" fill-opacity="1"><g transform="translate(33.649183, 20.372503)"><g/></g></g><g fill="#472d2d" fill-opacity="1"><g transform="translate(33.649183, 21.313258)"><g><path d="M 1.671875 2.046875 C 1.816406 1.984375 1.925781 1.890625 2 1.765625 C 2.070312 1.640625 2.109375 1.492188 2.109375 1.328125 C 2.109375 1.160156 2.070312 1.007812 2 0.875 C 1.925781 0.75 1.816406 0.648438 1.671875 0.578125 C 1.535156 0.503906 1.375 0.46875 1.1875 0.46875 C 1 0.46875 0.832031 0.503906 0.6875 0.578125 C 0.550781 0.648438 0.441406 0.75 0.359375 0.875 C 0.285156 1.007812 0.25 1.160156 0.25 1.328125 C 0.25 1.554688 0.316406 1.742188 0.453125 1.890625 C 0.597656 2.046875 0.789062 2.132812 1.03125 2.15625 L 1.03125 1.21875 L 1.28125 1.21875 L 1.28125 2.484375 L 1.03125 2.484375 C 0.84375 2.472656 0.664062 2.414062 0.5 2.3125 C 0.34375 2.207031 0.21875 2.066406 0.125 1.890625 C 0.03125 1.722656 -0.015625 1.535156 -0.015625 1.328125 C -0.015625 1.109375 0.03125 0.910156 0.125 0.734375 C 0.226562 0.554688 0.375 0.410156 0.5625 0.296875 C 0.75 0.191406 0.957031 0.140625 1.1875 0.140625 C 1.414062 0.140625 1.617188 0.191406 1.796875 0.296875 C 1.984375 0.410156 2.128906 0.554688 2.234375 0.734375 C 2.335938 0.910156 2.390625 1.109375 2.390625 1.328125 C 2.390625 1.578125 2.328125 1.796875 2.203125 1.984375 C 2.078125 2.179688 1.898438 2.328125 1.671875 2.421875 Z M 1.671875 2.046875 "/></g></g></g><g fill="#472d2d" fill-opacity="1"><g transform="translate(33.649183, 23.989482)"><g><path d="M 1 1.953125 C 0.9375 1.953125 0.875 1.953125 0.8125 1.953125 L 0.8125 0.46875 C 0.632812 0.476562 0.492188 0.539062 0.390625 0.65625 C 0.285156 0.769531 0.234375 0.90625 0.234375 1.0625 C 0.234375 1.195312 0.265625 1.304688 0.328125 1.390625 C 0.390625 1.484375 0.472656 1.550781 0.578125 1.59375 L 0.578125 1.921875 C 0.398438 1.867188 0.253906 1.765625 0.140625 1.609375 C 0.0234375 1.460938 -0.03125 1.28125 -0.03125 1.0625 C -0.03125 0.882812 0.00390625 0.726562 0.078125 0.59375 C 0.160156 0.457031 0.273438 0.347656 0.421875 0.265625 C 0.566406 0.179688 0.738281 0.140625 0.9375 0.140625 C 1.125 0.140625 1.289062 0.175781 1.4375 0.25 C 1.582031 0.332031 1.691406 0.441406 1.765625 0.578125 C 1.847656 0.722656 1.890625 0.882812 1.890625 1.0625 C 1.890625 1.238281 1.847656 1.394531 1.765625 1.53125 C 1.691406 1.664062 1.585938 1.769531 1.453125 1.84375 C 1.316406 1.914062 1.164062 1.953125 1 1.953125 Z M 1.0625 1.640625 C 1.175781 1.640625 1.273438 1.613281 1.359375 1.5625 C 1.453125 1.507812 1.519531 1.4375 1.5625 1.34375 C 1.601562 1.257812 1.625 1.160156 1.625 1.046875 C 1.625 0.890625 1.570312 0.753906 1.46875 0.640625 C 1.375 0.535156 1.238281 0.476562 1.0625 0.46875 Z M 2.390625 1.390625 L 2 0.671875 L 2.234375 0.671875 L 2.65625 1.390625 Z M 2.390625 1.390625 "/></g></g></g><g fill="#472d2d" fill-opacity="1"><g transform="translate(33.649183, 26.129103)"><g><path d="M 1.890625 1.171875 C 1.890625 1.390625 1.820312 1.566406 1.6875 1.703125 C 1.550781 1.847656 1.351562 1.921875 1.09375 1.921875 L 0 1.921875 L 0 1.625 L 1.046875 1.625 C 1.234375 1.625 1.375 1.578125 1.46875 1.484375 C 1.570312 1.390625 1.625 1.265625 1.625 1.109375 C 1.625 0.941406 1.570312 0.804688 1.46875 0.703125 C 1.363281 0.609375 1.21875 0.5625 1.03125 0.5625 L 0 0.5625 L 0 0.265625 L 1.859375 0.265625 L 1.859375 0.5625 L 1.59375 0.5625 C 1.6875 0.625 1.757812 0.707031 1.8125 0.8125 C 1.863281 0.914062 1.890625 1.035156 1.890625 1.171875 Z M 1.890625 1.171875 "/></g></g></g><g fill="#472d2d" fill-opacity="1"><g transform="translate(33.649183, 28.336649)"><g><path d="M 1 1.953125 C 0.9375 1.953125 0.875 1.953125 0.8125 1.953125 L 0.8125 0.46875 C 0.632812 0.476562 0.492188 0.539062 0.390625 0.65625 C 0.285156 0.769531 0.234375 0.90625 0.234375 1.0625 C 0.234375 1.195312 0.265625 1.304688 0.328125 1.390625 C 0.390625 1.484375 0.472656 1.550781 0.578125 1.59375 L 0.578125 1.921875 C 0.398438 1.867188 0.253906 1.765625 0.140625 1.609375 C 0.0234375 1.460938 -0.03125 1.28125 -0.03125 1.0625 C -0.03125 0.882812 0.00390625 0.726562 0.078125 0.59375 C 0.160156 0.457031 0.273438 0.347656 0.421875 0.265625 C 0.566406 0.179688 0.738281 0.140625 0.9375 0.140625 C 1.125 0.140625 1.289062 0.175781 1.4375 0.25 C 1.582031 0.332031 1.691406 0.441406 1.765625 0.578125 C 1.847656 0.722656 1.890625 0.882812 1.890625 1.0625 C 1.890625 1.238281 1.847656 1.394531 1.765625 1.53125 C 1.691406 1.664062 1.585938 1.769531 1.453125 1.84375 C 1.316406 1.914062 1.164062 1.953125 1 1.953125 Z M 1.0625 1.640625 C 1.175781 1.640625 1.273438 1.613281 1.359375 1.5625 C 1.453125 1.507812 1.519531 1.4375 1.5625 1.34375 C 1.601562 1.257812 1.625 1.160156 1.625 1.046875 C 1.625 0.890625 1.570312 0.753906 1.46875 0.640625 C 1.375 0.535156 1.238281 0.476562 1.0625 0.46875 Z M 2.390625 1.390625 L 2 0.671875 L 2.234375 0.671875 L 2.65625 1.390625 Z M 2.390625 1.390625 "/></g></g></g><g fill="#472d2d" fill-opacity="1"><g transform="translate(33.649183, 30.47627)"><g><path d="M 1.5625 0.5625 C 1.664062 0.625 1.742188 0.703125 1.796875 0.796875 C 1.859375 0.898438 1.890625 1.023438 1.890625 1.171875 L 1.578125 1.171875 L 1.578125 1.09375 C 1.578125 0.738281 1.390625 0.5625 1.015625 0.5625 L 0 0.5625 L 0 0.265625 L 1.859375 0.265625 L 1.859375 0.5625 Z M 1.5625 0.5625 "/></g></g></g><g fill="#472d2d" fill-opacity="1"><g transform="translate(33.649183, 31.777024)"><g><path d="M 0.9375 0.140625 C 1.125 0.140625 1.289062 0.175781 1.4375 0.25 C 1.582031 0.332031 1.691406 0.441406 1.765625 0.578125 C 1.847656 0.710938 1.890625 0.863281 1.890625 1.03125 C 1.890625 1.1875 1.851562 1.320312 1.78125 1.4375 C 1.707031 1.5625 1.617188 1.65625 1.515625 1.71875 L 1.859375 1.71875 L 1.859375 2.03125 L 0 2.03125 L 0 1.71875 L 0.34375 1.71875 C 0.238281 1.65625 0.148438 1.5625 0.078125 1.4375 C 0.00390625 1.320312 -0.03125 1.1875 -0.03125 1.03125 C -0.03125 0.863281 0.0078125 0.710938 0.09375 0.578125 C 0.175781 0.441406 0.289062 0.332031 0.4375 0.25 C 0.582031 0.175781 0.75 0.140625 0.9375 0.140625 Z M 0.9375 1.71875 C 1.070312 1.71875 1.191406 1.6875 1.296875 1.625 C 1.398438 1.570312 1.476562 1.5 1.53125 1.40625 C 1.59375 1.3125 1.625 1.207031 1.625 1.09375 C 1.625 0.976562 1.59375 0.867188 1.53125 0.765625 C 1.476562 0.671875 1.398438 0.597656 1.296875 0.546875 C 1.191406 0.492188 1.070312 0.46875 0.9375 0.46875 C 0.789062 0.46875 0.664062 0.492188 0.5625 0.546875 C 0.457031 0.597656 0.375 0.671875 0.3125 0.765625 C 0.257812 0.867188 0.234375 0.976562 0.234375 1.09375 C 0.234375 1.207031 0.257812 1.3125 0.3125 1.40625 C 0.375 1.5 0.457031 1.570312 0.5625 1.625 C 0.664062 1.6875 0.789062 1.71875 0.9375 1.71875 Z M 0.9375 1.71875 "/></g></g></g><g fill="#472d2d" fill-opacity="1"><g transform="translate(33.649183, 34.106835)"><g><path d="M 2.515625 0.5625 L 0 0.5625 L 0 0.265625 L 2.515625 0.265625 Z M 2.515625 0.5625 "/></g></g></g><g fill="#472d2d" fill-opacity="1"><g transform="translate(33.649183, 34.976271)"><g><path d="M 1 1.953125 C 0.9375 1.953125 0.875 1.953125 0.8125 1.953125 L 0.8125 0.46875 C 0.632812 0.476562 0.492188 0.539062 0.390625 0.65625 C 0.285156 0.769531 0.234375 0.90625 0.234375 1.0625 C 0.234375 1.195312 0.265625 1.304688 0.328125 1.390625 C 0.390625 1.484375 0.472656 1.550781 0.578125 1.59375 L 0.578125 1.921875 C 0.398438 1.867188 0.253906 1.765625 0.140625 1.609375 C 0.0234375 1.460938 -0.03125 1.28125 -0.03125 1.0625 C -0.03125 0.882812 0.00390625 0.726562 0.078125 0.59375 C 0.160156 0.457031 0.273438 0.347656 0.421875 0.265625 C 0.566406 0.179688 0.738281 0.140625 0.9375 0.140625 C 1.125 0.140625 1.289062 0.175781 1.4375 0.25 C 1.582031 0.332031 1.691406 0.441406 1.765625 0.578125 C 1.847656 0.722656 1.890625 0.882812 1.890625 1.0625 C 1.890625 1.238281 1.847656 1.394531 1.765625 1.53125 C 1.691406 1.664062 1.585938 1.769531 1.453125 1.84375 C 1.316406 1.914062 1.164062 1.953125 1 1.953125 Z M 1.0625 1.640625 C 1.175781 1.640625 1.273438 1.613281 1.359375 1.5625 C 1.453125 1.507812 1.519531 1.4375 1.5625 1.34375 C 1.601562 1.257812 1.625 1.160156 1.625 1.046875 C 1.625 0.890625 1.570312 0.753906 1.46875 0.640625 C 1.375 0.535156 1.238281 0.476562 1.0625 0.46875 Z M 1.0625 1.640625 "/></g></g></g></svg>