<svg xmlns="http://www.w3.org/2000/svg" xmlns:xlink="http://www.w3.org/1999/xlink" width="120" zoomAndPan="magnify" viewBox="0 0 90 89.999999" height="120" preserveAspectRatio="xMidYMid meet" version="1.0"><defs><g/><clipPath id="1a2e79a53e"><path d="M 0 0 L 62 0 L 62 90 L 0 90 Z M 0 0 " clip-rule="nonzero"/></clipPath><clipPath id="95fb6b547b"><path d="M 53.042969 -4.261719 L 61.421875 0.972656 L 2.648438 95.03125 L -5.730469 89.796875 Z M 53.042969 -4.261719 " clip-rule="nonzero"/></clipPath><clipPath id="3f0a0f8f7b"><path d="M 50.941406 0 L 61.425781 0 L 61.425781 90 L 50.941406 90 Z M 50.941406 0 " clip-rule="nonzero"/></clipPath><clipPath id="9522d2e65b"><path d="M 0 39.097656 L 61.417969 39.097656 L 61.417969 45.386719 L 0 45.386719 Z M 0 39.097656 " clip-rule="nonzero"/></clipPath><clipPath id="593418cf2c"><path d="M 56.179688 75.902344 L 90 75.902344 L 90 84.144531 L 56.179688 84.144531 Z M 56.179688 75.902344 " clip-rule="nonzero"/></clipPath></defs><g clip-path="url(#1a2e79a53e)"><g clip-path="url(#95fb6b547b)"><path fill="#f2464c" d="M 53.042969 -4.261719 L 61.421875 0.972656 L 2.644531 95.039062 L -5.734375 89.800781 Z M 53.042969 -4.261719 " fill-opacity="1" fill-rule="nonzero"/></g></g><g clip-path="url(#3f0a0f8f7b)"><path fill="#f2464c" d="M 50.941406 -3.75 L 61.425781 -3.75 L 61.425781 121.335938 L 50.941406 121.335938 Z M 50.941406 -3.75 " fill-opacity="1" fill-rule="nonzero"/></g><g clip-path="url(#9522d2e65b)"><path fill="#f2464c" d="M 61.417969 39.097656 L 61.417969 45.386719 L -5.734375 45.386719 L -5.734375 39.097656 Z M 61.417969 39.097656 " fill-opacity="1" fill-rule="nonzero"/></g><g clip-path="url(#593418cf2c)"><path fill="#f2464c" d="M 123.332031 75.902344 L 123.332031 84.144531 L 56.1875 84.144531 L 56.1875 75.902344 Z M 123.332031 75.902344 " fill-opacity="1" fill-rule="nonzero"/></g><g fill="#472d2d" fill-opacity="1"><g transform="translate(63.476468, 3.310248)"><g><path d="M 4.5 5.09375 L 0 5.09375 L 0 4.5 L 3.359375 4.5 L 0 3.015625 L 0 2.59375 L 3.359375 1.09375 L 0 1.09375 L 0 0.5 L 4.5 0.5 L 4.5 1.140625 L 0.78125 2.796875 L 4.5 4.46875 Z M 4.5 5.09375 "/></g></g></g><g fill="#472d2d" fill-opacity="1"><g transform="translate(63.476468, 8.97226)"><g><path d="M 1.921875 3.75 C 1.804688 3.75 1.6875 3.742188 1.5625 3.734375 L 1.5625 0.890625 C 1.207031 0.910156 0.929688 1.03125 0.734375 1.25 C 0.535156 1.46875 0.4375 1.734375 0.4375 2.046875 C 0.4375 2.296875 0.492188 2.503906 0.609375 2.671875 C 0.734375 2.847656 0.894531 2.972656 1.09375 3.046875 L 1.09375 3.671875 C 0.75 3.578125 0.46875 3.382812 0.25 3.09375 C 0.0390625 2.8125 -0.0625 2.460938 -0.0625 2.046875 C -0.0625 1.703125 0.0078125 1.394531 0.15625 1.125 C 0.3125 0.863281 0.53125 0.65625 0.8125 0.5 C 1.09375 0.351562 1.414062 0.28125 1.78125 0.28125 C 2.15625 0.28125 2.476562 0.351562 2.75 0.5 C 3.03125 0.644531 3.242188 0.847656 3.390625 1.109375 C 3.546875 1.378906 3.625 1.691406 3.625 2.046875 C 3.625 2.378906 3.546875 2.675781 3.390625 2.9375 C 3.242188 3.195312 3.039062 3.394531 2.78125 3.53125 C 2.53125 3.675781 2.242188 3.75 1.921875 3.75 Z M 2.046875 3.140625 C 2.265625 3.140625 2.453125 3.085938 2.609375 2.984375 C 2.773438 2.890625 2.898438 2.753906 2.984375 2.578125 C 3.078125 2.410156 3.125 2.222656 3.125 2.015625 C 3.125 1.710938 3.023438 1.457031 2.828125 1.25 C 2.640625 1.039062 2.378906 0.921875 2.046875 0.890625 Z M 2.046875 3.140625 "/></g></g></g><g fill="#472d2d" fill-opacity="1"><g transform="translate(63.476468, 13.067627)"><g><path d="M 3.625 2.234375 C 3.625 2.671875 3.492188 3.019531 3.234375 3.28125 C 2.972656 3.550781 2.59375 3.6875 2.09375 3.6875 L 0 3.6875 L 0 3.109375 L 2.015625 3.109375 C 2.367188 3.109375 2.640625 3.019531 2.828125 2.84375 C 3.015625 2.664062 3.109375 2.421875 3.109375 2.109375 C 3.109375 1.796875 3.007812 1.546875 2.8125 1.359375 C 2.625 1.179688 2.34375 1.09375 1.96875 1.09375 L 0 1.09375 L 0 0.5 L 3.5625 0.5 L 3.5625 1.09375 L 3.0625 1.09375 C 3.238281 1.207031 3.375 1.363281 3.46875 1.5625 C 3.570312 1.769531 3.625 1.992188 3.625 2.234375 Z M 3.625 2.234375 "/></g></g></g><g fill="#472d2d" fill-opacity="1"><g transform="translate(63.476468, 17.293007)"><g><path d="M 3.5625 3.65625 L 0 3.65625 L 0 3.0625 L 0.53125 3.0625 C 0.34375 2.957031 0.195312 2.800781 0.09375 2.59375 C 0 2.394531 -0.046875 2.175781 -0.046875 1.9375 C -0.046875 1.65625 0.0078125 1.398438 0.125 1.171875 C 0.238281 0.953125 0.410156 0.78125 0.640625 0.65625 C 0.867188 0.53125 1.144531 0.46875 1.46875 0.46875 L 3.5625 0.46875 L 3.5625 1.046875 L 1.546875 1.046875 C 1.203125 1.046875 0.9375 1.132812 0.75 1.3125 C 0.5625 1.5 0.46875 1.742188 0.46875 2.046875 C 0.46875 2.359375 0.5625 2.601562 0.75 2.78125 C 0.945312 2.96875 1.234375 3.0625 1.609375 3.0625 L 3.5625 3.0625 Z M 3.5625 3.65625 "/></g></g></g><g fill="#472d2d" fill-opacity="1"><g transform="translate(63.476468, 21.518387)"><g><path d="M 4.140625 0.8125 C 4.140625 0.695312 4.175781 0.597656 4.25 0.515625 C 4.332031 0.441406 4.429688 0.40625 4.546875 0.40625 C 4.660156 0.40625 4.753906 0.441406 4.828125 0.515625 C 4.910156 0.597656 4.953125 0.695312 4.953125 0.8125 C 4.953125 0.914062 4.910156 1.003906 4.828125 1.078125 C 4.753906 1.160156 4.660156 1.203125 4.546875 1.203125 C 4.429688 1.203125 4.332031 1.160156 4.25 1.078125 C 4.175781 1.003906 4.140625 0.914062 4.140625 0.8125 Z M 3.5625 1.09375 L 0 1.09375 L 0 0.5 L 3.5625 0.5 Z M 3.5625 1.09375 "/></g></g></g><g fill="#472d2d" fill-opacity="1"><g transform="translate(63.476468, 23.182539)"><g><path d="M -0.0625 1.765625 C -0.0625 1.492188 -0.015625 1.25 0.078125 1.03125 C 0.171875 0.8125 0.300781 0.640625 0.46875 0.515625 C 0.632812 0.390625 0.828125 0.320312 1.046875 0.3125 L 1.046875 0.921875 C 0.867188 0.929688 0.722656 1.007812 0.609375 1.15625 C 0.492188 1.3125 0.4375 1.507812 0.4375 1.75 C 0.4375 1.976562 0.484375 2.15625 0.578125 2.28125 C 0.679688 2.414062 0.8125 2.484375 0.96875 2.484375 C 1.125 2.484375 1.238281 2.410156 1.3125 2.265625 C 1.394531 2.128906 1.472656 1.914062 1.546875 1.625 C 1.609375 1.363281 1.675781 1.148438 1.75 0.984375 C 1.820312 0.816406 1.925781 0.671875 2.0625 0.546875 C 2.207031 0.429688 2.394531 0.375 2.625 0.375 C 2.8125 0.375 2.976562 0.425781 3.125 0.53125 C 3.28125 0.644531 3.398438 0.800781 3.484375 1 C 3.578125 1.195312 3.625 1.425781 3.625 1.6875 C 3.625 2.082031 3.519531 2.398438 3.3125 2.640625 C 3.113281 2.878906 2.84375 3.007812 2.5 3.03125 L 2.5 2.4375 C 2.6875 2.425781 2.835938 2.351562 2.953125 2.21875 C 3.066406 2.082031 3.125 1.894531 3.125 1.65625 C 3.125 1.445312 3.078125 1.28125 2.984375 1.15625 C 2.890625 1.03125 2.769531 0.96875 2.625 0.96875 C 2.507812 0.96875 2.410156 1.003906 2.328125 1.078125 C 2.253906 1.160156 2.195312 1.257812 2.15625 1.375 C 2.113281 1.488281 2.0625 1.644531 2 1.84375 C 1.925781 2.101562 1.859375 2.3125 1.796875 2.46875 C 1.734375 2.625 1.632812 2.757812 1.5 2.875 C 1.363281 3 1.1875 3.0625 0.96875 3.0625 C 0.769531 3.0625 0.59375 3.003906 0.4375 2.890625 C 0.28125 2.785156 0.15625 2.632812 0.0625 2.4375 C -0.0195312 2.238281 -0.0625 2.015625 -0.0625 1.765625 Z M -0.0625 1.765625 "/></g></g></g><g fill="#472d2d" fill-opacity="1"><g transform="translate(63.476468, 26.640846)"><g><path d="M 1.921875 3.75 C 1.804688 3.75 1.6875 3.742188 1.5625 3.734375 L 1.5625 0.890625 C 1.207031 0.910156 0.929688 1.03125 0.734375 1.25 C 0.535156 1.46875 0.4375 1.734375 0.4375 2.046875 C 0.4375 2.296875 0.492188 2.503906 0.609375 2.671875 C 0.734375 2.847656 0.894531 2.972656 1.09375 3.046875 L 1.09375 3.671875 C 0.75 3.578125 0.46875 3.382812 0.25 3.09375 C 0.0390625 2.8125 -0.0625 2.460938 -0.0625 2.046875 C -0.0625 1.703125 0.0078125 1.394531 0.15625 1.125 C 0.3125 0.863281 0.53125 0.65625 0.8125 0.5 C 1.09375 0.351562 1.414062 0.28125 1.78125 0.28125 C 2.15625 0.28125 2.476562 0.351562 2.75 0.5 C 3.03125 0.644531 3.242188 0.847656 3.390625 1.109375 C 3.546875 1.378906 3.625 1.691406 3.625 2.046875 C 3.625 2.378906 3.546875 2.675781 3.390625 2.9375 C 3.242188 3.195312 3.039062 3.394531 2.78125 3.53125 C 2.53125 3.675781 2.242188 3.75 1.921875 3.75 Z M 2.046875 3.140625 C 2.265625 3.140625 2.453125 3.085938 2.609375 2.984375 C 2.773438 2.890625 2.898438 2.753906 2.984375 2.578125 C 3.078125 2.410156 3.125 2.222656 3.125 2.015625 C 3.125 1.710938 3.023438 1.457031 2.828125 1.25 C 2.640625 1.039062 2.378906 0.921875 2.046875 0.890625 Z M 2.046875 3.140625 "/></g></g></g><g fill="#472d2d" fill-opacity="1"><g transform="translate(63.476468, 30.736212)"><g><path d="M 2.984375 1.09375 C 3.179688 1.195312 3.335938 1.34375 3.453125 1.53125 C 3.566406 1.726562 3.625 1.96875 3.625 2.25 L 3.015625 2.25 L 3.015625 2.09375 C 3.015625 1.425781 2.65625 1.09375 1.9375 1.09375 L 0 1.09375 L 0 0.5 L 3.5625 0.5 L 3.5625 1.09375 Z M 2.984375 1.09375 "/></g></g></g><g fill="#472d2d" fill-opacity="1"><g transform="translate(63.476468, 33.225934)"><g><path d="M 4.140625 0.8125 C 4.140625 0.695312 4.175781 0.597656 4.25 0.515625 C 4.332031 0.441406 4.429688 0.40625 4.546875 0.40625 C 4.660156 0.40625 4.753906 0.441406 4.828125 0.515625 C 4.910156 0.597656 4.953125 0.695312 4.953125 0.8125 C 4.953125 0.914062 4.910156 1.003906 4.828125 1.078125 C 4.753906 1.160156 4.660156 1.203125 4.546875 1.203125 C 4.429688 1.203125 4.332031 1.160156 4.25 1.078125 C 4.175781 1.003906 4.140625 0.914062 4.140625 0.8125 Z M 3.5625 1.09375 L 0 1.09375 L 0 0.5 L 3.5625 0.5 Z M 3.5625 1.09375 "/></g></g></g><g fill="#472d2d" fill-opacity="1"><g transform="translate(63.476468, 34.890086)"><g><path d="M 1.921875 3.75 C 1.804688 3.75 1.6875 3.742188 1.5625 3.734375 L 1.5625 0.890625 C 1.207031 0.910156 0.929688 1.03125 0.734375 1.25 C 0.535156 1.46875 0.4375 1.734375 0.4375 2.046875 C 0.4375 2.296875 0.492188 2.503906 0.609375 2.671875 C 0.734375 2.847656 0.894531 2.972656 1.09375 3.046875 L 1.09375 3.671875 C 0.75 3.578125 0.46875 3.382812 0.25 3.09375 C 0.0390625 2.8125 -0.0625 2.460938 -0.0625 2.046875 C -0.0625 1.703125 0.0078125 1.394531 0.15625 1.125 C 0.3125 0.863281 0.53125 0.65625 0.8125 0.5 C 1.09375 0.351562 1.414062 0.28125 1.78125 0.28125 C 2.15625 0.28125 2.476562 0.351562 2.75 0.5 C 3.03125 0.644531 3.242188 0.847656 3.390625 1.109375 C 3.546875 1.378906 3.625 1.691406 3.625 2.046875 C 3.625 2.378906 3.546875 2.675781 3.390625 2.9375 C 3.242188 3.195312 3.039062 3.394531 2.78125 3.53125 C 2.53125 3.675781 2.242188 3.75 1.921875 3.75 Z M 2.046875 3.140625 C 2.265625 3.140625 2.453125 3.085938 2.609375 2.984375 C 2.773438 2.890625 2.898438 2.753906 2.984375 2.578125 C 3.078125 2.410156 3.125 2.222656 3.125 2.015625 C 3.125 1.710938 3.023438 1.457031 2.828125 1.25 C 2.640625 1.039062 2.378906 0.921875 2.046875 0.890625 Z M 2.046875 3.140625 "/></g></g></g><g fill="#472d2d" fill-opacity="1"><g transform="translate(63.476468, 38.985454)"><g/></g></g><g fill="#472d2d" fill-opacity="1"><g transform="translate(63.476468, 40.786118)"><g><path d="M 3.21875 3.9375 C 3.476562 3.8125 3.679688 3.628906 3.828125 3.390625 C 3.972656 3.148438 4.046875 2.867188 4.046875 2.546875 C 4.046875 2.234375 3.972656 1.945312 3.828125 1.6875 C 3.679688 1.4375 3.472656 1.238281 3.203125 1.09375 C 2.929688 0.957031 2.617188 0.890625 2.265625 0.890625 C 1.910156 0.890625 1.597656 0.957031 1.328125 1.09375 C 1.054688 1.238281 0.847656 1.4375 0.703125 1.6875 C 0.566406 1.945312 0.5 2.234375 0.5 2.546875 C 0.5 2.992188 0.628906 3.359375 0.890625 3.640625 C 1.148438 3.929688 1.507812 4.097656 1.96875 4.140625 L 1.96875 2.34375 L 2.4375 2.34375 L 2.4375 4.78125 L 1.984375 4.78125 C 1.617188 4.738281 1.28125 4.617188 0.96875 4.421875 C 0.65625 4.222656 0.410156 3.960938 0.234375 3.640625 C 0.0546875 3.316406 -0.03125 2.953125 -0.03125 2.546875 C -0.03125 2.128906 0.0625 1.75 0.25 1.40625 C 0.445312 1.0625 0.722656 0.785156 1.078125 0.578125 C 1.429688 0.378906 1.828125 0.28125 2.265625 0.28125 C 2.710938 0.28125 3.109375 0.378906 3.453125 0.578125 C 3.804688 0.785156 4.082031 1.0625 4.28125 1.40625 C 4.476562 1.75 4.578125 2.128906 4.578125 2.546875 C 4.578125 3.035156 4.457031 3.460938 4.21875 3.828125 C 3.988281 4.203125 3.65625 4.472656 3.21875 4.640625 Z M 3.21875 3.9375 "/></g></g></g><g fill="#472d2d" fill-opacity="1"><g transform="translate(63.476468, 45.908578)"><g><path d="M 1.921875 3.75 C 1.804688 3.75 1.6875 3.742188 1.5625 3.734375 L 1.5625 0.890625 C 1.207031 0.910156 0.929688 1.03125 0.734375 1.25 C 0.535156 1.46875 0.4375 1.734375 0.4375 2.046875 C 0.4375 2.296875 0.492188 2.503906 0.609375 2.671875 C 0.734375 2.847656 0.894531 2.972656 1.09375 3.046875 L 1.09375 3.671875 C 0.75 3.578125 0.46875 3.382812 0.25 3.09375 C 0.0390625 2.8125 -0.0625 2.460938 -0.0625 2.046875 C -0.0625 1.703125 0.0078125 1.394531 0.15625 1.125 C 0.3125 0.863281 0.53125 0.65625 0.8125 0.5 C 1.09375 0.351562 1.414062 0.28125 1.78125 0.28125 C 2.15625 0.28125 2.476562 0.351562 2.75 0.5 C 3.03125 0.644531 3.242188 0.847656 3.390625 1.109375 C 3.546875 1.378906 3.625 1.691406 3.625 2.046875 C 3.625 2.378906 3.546875 2.675781 3.390625 2.9375 C 3.242188 3.195312 3.039062 3.394531 2.78125 3.53125 C 2.53125 3.675781 2.242188 3.75 1.921875 3.75 Z M 2.046875 3.140625 C 2.265625 3.140625 2.453125 3.085938 2.609375 2.984375 C 2.773438 2.890625 2.898438 2.753906 2.984375 2.578125 C 3.078125 2.410156 3.125 2.222656 3.125 2.015625 C 3.125 1.710938 3.023438 1.457031 2.828125 1.25 C 2.640625 1.039062 2.378906 0.921875 2.046875 0.890625 Z M 4.5625 2.65625 L 3.828125 1.265625 L 4.265625 1.265625 L 5.078125 2.65625 Z M 4.5625 2.65625 "/></g></g></g><g fill="#472d2d" fill-opacity="1"><g transform="translate(63.476468, 50.003946)"><g><path d="M 3.625 2.234375 C 3.625 2.671875 3.492188 3.019531 3.234375 3.28125 C 2.972656 3.550781 2.59375 3.6875 2.09375 3.6875 L 0 3.6875 L 0 3.109375 L 2.015625 3.109375 C 2.367188 3.109375 2.640625 3.019531 2.828125 2.84375 C 3.015625 2.664062 3.109375 2.421875 3.109375 2.109375 C 3.109375 1.796875 3.007812 1.546875 2.8125 1.359375 C 2.625 1.179688 2.34375 1.09375 1.96875 1.09375 L 0 1.09375 L 0 0.5 L 3.5625 0.5 L 3.5625 1.09375 L 3.0625 1.09375 C 3.238281 1.207031 3.375 1.363281 3.46875 1.5625 C 3.570312 1.769531 3.625 1.992188 3.625 2.234375 Z M 3.625 2.234375 "/></g></g></g><g fill="#472d2d" fill-opacity="1"><g transform="translate(63.476468, 54.229327)"><g><path d="M 1.921875 3.75 C 1.804688 3.75 1.6875 3.742188 1.5625 3.734375 L 1.5625 0.890625 C 1.207031 0.910156 0.929688 1.03125 0.734375 1.25 C 0.535156 1.46875 0.4375 1.734375 0.4375 2.046875 C 0.4375 2.296875 0.492188 2.503906 0.609375 2.671875 C 0.734375 2.847656 0.894531 2.972656 1.09375 3.046875 L 1.09375 3.671875 C 0.75 3.578125 0.46875 3.382812 0.25 3.09375 C 0.0390625 2.8125 -0.0625 2.460938 -0.0625 2.046875 C -0.0625 1.703125 0.0078125 1.394531 0.15625 1.125 C 0.3125 0.863281 0.53125 0.65625 0.8125 0.5 C 1.09375 0.351562 1.414062 0.28125 1.78125 0.28125 C 2.15625 0.28125 2.476562 0.351562 2.75 0.5 C 3.03125 0.644531 3.242188 0.847656 3.390625 1.109375 C 3.546875 1.378906 3.625 1.691406 3.625 2.046875 C 3.625 2.378906 3.546875 2.675781 3.390625 2.9375 C 3.242188 3.195312 3.039062 3.394531 2.78125 3.53125 C 2.53125 3.675781 2.242188 3.75 1.921875 3.75 Z M 2.046875 3.140625 C 2.265625 3.140625 2.453125 3.085938 2.609375 2.984375 C 2.773438 2.890625 2.898438 2.753906 2.984375 2.578125 C 3.078125 2.410156 3.125 2.222656 3.125 2.015625 C 3.125 1.710938 3.023438 1.457031 2.828125 1.25 C 2.640625 1.039062 2.378906 0.921875 2.046875 0.890625 Z M 4.5625 2.65625 L 3.828125 1.265625 L 4.265625 1.265625 L 5.078125 2.65625 Z M 4.5625 2.65625 "/></g></g></g><g fill="#472d2d" fill-opacity="1"><g transform="translate(63.476468, 58.324695)"><g><path d="M 2.984375 1.09375 C 3.179688 1.195312 3.335938 1.34375 3.453125 1.53125 C 3.566406 1.726562 3.625 1.96875 3.625 2.25 L 3.015625 2.25 L 3.015625 2.09375 C 3.015625 1.425781 2.65625 1.09375 1.9375 1.09375 L 0 1.09375 L 0 0.5 L 3.5625 0.5 L 3.5625 1.09375 Z M 2.984375 1.09375 "/></g></g></g><g fill="#472d2d" fill-opacity="1"><g transform="translate(63.476468, 60.814419)"><g><path d="M 1.796875 0.28125 C 2.160156 0.28125 2.476562 0.351562 2.75 0.5 C 3.03125 0.644531 3.242188 0.847656 3.390625 1.109375 C 3.546875 1.367188 3.625 1.65625 3.625 1.96875 C 3.625 2.28125 3.554688 2.550781 3.421875 2.78125 C 3.285156 3.007812 3.113281 3.179688 2.90625 3.296875 L 3.5625 3.296875 L 3.5625 3.890625 L 0 3.890625 L 0 3.296875 L 0.65625 3.296875 C 0.445312 3.179688 0.273438 3.003906 0.140625 2.765625 C 0.00390625 2.535156 -0.0625 2.269531 -0.0625 1.96875 C -0.0625 1.644531 0.015625 1.351562 0.171875 1.09375 C 0.328125 0.84375 0.546875 0.644531 0.828125 0.5 C 1.109375 0.351562 1.429688 0.28125 1.796875 0.28125 Z M 1.78125 3.296875 C 2.050781 3.296875 2.285156 3.238281 2.484375 3.125 C 2.679688 3.019531 2.832031 2.875 2.9375 2.6875 C 3.050781 2.507812 3.109375 2.3125 3.109375 2.09375 C 3.109375 1.863281 3.054688 1.65625 2.953125 1.46875 C 2.847656 1.289062 2.695312 1.148438 2.5 1.046875 C 2.300781 0.941406 2.066406 0.890625 1.796875 0.890625 C 1.523438 0.890625 1.285156 0.941406 1.078125 1.046875 C 0.878906 1.148438 0.726562 1.289062 0.625 1.46875 C 0.519531 1.65625 0.46875 1.863281 0.46875 2.09375 C 0.46875 2.3125 0.519531 2.507812 0.625 2.6875 C 0.726562 2.875 0.878906 3.019531 1.078125 3.125 C 1.285156 3.238281 1.519531 3.296875 1.78125 3.296875 Z M 1.78125 3.296875 "/></g></g></g><g fill="#472d2d" fill-opacity="1"><g transform="translate(63.476468, 65.273824)"><g><path d="M 4.8125 1.09375 L 0 1.09375 L 0 0.5 L 4.8125 0.5 Z M 4.8125 1.09375 "/></g></g></g><g fill="#472d2d" fill-opacity="1"><g transform="translate(63.476468, 66.937978)"><g><path d="M 1.921875 3.75 C 1.804688 3.75 1.6875 3.742188 1.5625 3.734375 L 1.5625 0.890625 C 1.207031 0.910156 0.929688 1.03125 0.734375 1.25 C 0.535156 1.46875 0.4375 1.734375 0.4375 2.046875 C 0.4375 2.296875 0.492188 2.503906 0.609375 2.671875 C 0.734375 2.847656 0.894531 2.972656 1.09375 3.046875 L 1.09375 3.671875 C 0.75 3.578125 0.46875 3.382812 0.25 3.09375 C 0.0390625 2.8125 -0.0625 2.460938 -0.0625 2.046875 C -0.0625 1.703125 0.0078125 1.394531 0.15625 1.125 C 0.3125 0.863281 0.53125 0.65625 0.8125 0.5 C 1.09375 0.351562 1.414062 0.28125 1.78125 0.28125 C 2.15625 0.28125 2.476562 0.351562 2.75 0.5 C 3.03125 0.644531 3.242188 0.847656 3.390625 1.109375 C 3.546875 1.378906 3.625 1.691406 3.625 2.046875 C 3.625 2.378906 3.546875 2.675781 3.390625 2.9375 C 3.242188 3.195312 3.039062 3.394531 2.78125 3.53125 C 2.53125 3.675781 2.242188 3.75 1.921875 3.75 Z M 2.046875 3.140625 C 2.265625 3.140625 2.453125 3.085938 2.609375 2.984375 C 2.773438 2.890625 2.898438 2.753906 2.984375 2.578125 C 3.078125 2.410156 3.125 2.222656 3.125 2.015625 C 3.125 1.710938 3.023438 1.457031 2.828125 1.25 C 2.640625 1.039062 2.378906 0.921875 2.046875 0.890625 Z M 2.046875 3.140625 "/></g></g></g></svg>